<svg width="37" height="19" viewBox="0 0 37 19" fill="none" xmlns="http://www.w3.org/2000/svg">
<path d="M1.15441 15.1092C0.988986 14.8492 0.768418 14.4339 0.632185 14.1264C-0.16251 12.3258 -0.19819 10.4617 0.470002 8.67379C1.20631 6.71148 2.61405 5.21201 4.43374 4.44484C6.72052 3.48429 9.24732 3.67133 11.44 4.94255C12.8316 5.7224 13.8176 6.92705 14.5669 8.63258C14.661 8.85132 14.7453 9.08274 14.8296 9.28246L1.15441 15.1092ZM5.72147 7.33917C4.0964 8.02075 3.25954 9.51071 3.4347 11.2543L10.3112 8.35995C9.12731 7.00314 7.58982 6.55298 5.72147 7.33917V7.33917ZM11.1676 13.635C11.1643 13.635 11.1643 13.6382 11.1643 13.6382L11.0216 13.5431C10.6097 14.193 9.97066 14.7224 9.16299 15.0648C7.6255 15.7178 6.20153 15.5498 5.17654 14.6717L5.08247 14.8112C5.08247 14.8112 5.08247 14.808 5.07923 14.808L3.33414 17.36C3.76879 17.6548 4.23264 17.902 4.71918 18.1018C6.64591 18.8848 8.61805 18.8467 10.561 18.0225C11.9655 17.4265 13.0683 16.5199 13.8209 15.3691L11.1676 13.635ZM19.6075 0.691406V14.8746L21.8651 15.7685L20.5839 18.6914L18.0928 17.677C17.5348 17.4392 17.1521 17.0778 16.8667 16.6689C16.5909 16.2536 16.3866 15.6798 16.3866 14.9126V0.691406H19.6075ZM25.4526 11.2638C25.4526 10.056 26.0008 8.97179 26.8636 8.23632L24.5476 5.71289C22.9777 7.06971 21.9884 9.05104 21.9884 11.2575C21.9851 13.467 22.9745 15.4515 24.5411 16.8083L26.8539 14.2849C25.9943 13.5463 25.4526 12.4684 25.4526 11.2638V11.2638ZM29.5656 15.2867C29.1114 15.2867 28.6703 15.2106 28.2616 15.0775L27.1555 18.2888C27.9113 18.5361 28.719 18.6724 29.5623 18.6724C33.2276 18.6756 36.2864 16.1331 36.9968 12.7569L33.5974 12.0785C33.2114 13.914 31.5539 15.2899 29.5656 15.2867V15.2867ZM29.5753 3.8552C28.7352 3.8552 27.9275 3.98834 27.1717 4.23244L28.2681 7.44695C28.68 7.31381 29.1179 7.2409 29.572 7.2409C31.5636 7.24407 33.2244 8.62624 33.6007 10.4649L37 9.79285C36.3026 6.41032 33.2438 3.85837 29.5753 3.8552V3.8552Z" fill="white"/>
</svg>
