<svg width="43" height="20" viewBox="0 0 43 20" fill="none" xmlns="http://www.w3.org/2000/svg">
<g clip-path="url(#clip0_3802_222)">
<path d="M11.8061 0.191406H7.35054C5.38174 0.285916 3.77246 1.09101 3.30779 2.75123C3.0655 3.61707 2.93216 4.56799 2.7427 5.46554C1.77952 10.0293 0.925467 14.7188 0.00415039 19.1914H34.6928C37.3746 19.1914 39.216 18.616 39.7135 16.4549C39.9447 15.451 40.1661 14.3141 40.3873 13.2111C41.2494 8.91082 42.1124 4.61075 42.9955 0.191406H11.8061Z" fill="#9E9E9E"/>
<path d="M11.4585 6.94402C11.6448 6.81369 11.8848 6.22016 11.6106 5.97304C11.5238 5.89481 11.3785 5.87211 11.1759 5.9069C10.988 5.93911 10.8799 6.00398 10.8064 6.10551C10.6885 6.26874 10.5802 6.76117 10.763 6.94411C10.941 7.12216 11.3399 7.02688 11.4585 6.94402V6.94402ZM8.80683 5.97304C8.67332 6.85259 8.52293 7.71501 8.37212 8.57699C7.40388 8.58736 6.41531 8.62549 5.48142 8.55489C5.6578 7.71158 5.7843 6.81755 5.95959 5.97304H4.91632C4.54288 8.12424 4.20312 10.3098 3.78613 12.4168H4.85117C5.01818 11.336 5.17448 10.2442 5.39449 9.21697C6.30256 9.19426 7.39089 9.15468 8.26351 9.23908C8.08358 10.307 7.86619 11.3365 7.69841 12.4168H8.76345C9.10575 10.2338 9.46619 8.06948 9.89372 5.97304H8.80683V5.97304ZM23.869 7.82674C23.0404 7.48692 22.3888 8.06117 22.0868 8.5991C22.1553 8.35978 22.1835 8.07951 22.239 7.82674H21.4131C21.2111 9.41661 20.9136 10.9092 20.6307 12.4168H21.5653C21.6963 11.522 21.7529 10.3157 22.0434 9.45971C22.2757 8.7757 22.8835 8.19296 23.7605 8.51084C23.7726 8.2585 23.8438 8.06589 23.869 7.82674V7.82674ZM24.3906 11.3355C24.3044 11.1095 24.2822 10.7364 24.3037 10.4527C24.352 9.81513 24.5809 9.03883 24.934 8.68735C25.4214 8.2023 26.3836 8.28258 27.151 8.55497C27.1748 8.29235 27.2267 8.05809 27.2597 7.80472C26.0011 7.59599 24.8068 7.72589 24.1735 8.40057C23.5535 9.06102 23.1472 10.579 23.4344 11.5341C23.7706 12.6518 25.2784 12.7125 26.499 12.2845C26.553 12.0598 26.5816 11.8094 26.6294 11.5783C25.9623 11.9301 24.687 12.1129 24.3906 11.3355V11.3355ZM34.8885 7.84876C34.0625 7.42942 33.3748 8.13306 33.1063 8.55489C33.1828 8.33845 33.1872 8.04858 33.2584 7.82665H32.4325C32.2098 9.40273 31.9414 10.9324 31.6284 12.4167H32.5848C32.5908 11.8083 32.7085 11.3583 32.802 10.7618C33.0018 9.48782 33.2953 8.09082 34.7583 8.51076C34.8067 8.29535 34.8268 8.05098 34.8885 7.84876ZM10.5021 7.82674C10.4768 7.83042 10.4785 7.86161 10.4803 7.89289C10.2744 9.45654 9.99567 10.9464 9.69793 12.4167H10.6325C10.8571 10.8425 11.1143 9.30163 11.4367 7.82665L10.5021 7.82674V7.82674ZM18.7178 7.73849C18.0425 7.79135 17.4717 7.9886 17.066 8.42259C16.5684 8.95478 16.1655 10.1315 16.2836 11.2031C16.4521 12.7319 18.3268 12.677 19.8263 12.3065C19.8519 12.0381 19.9159 11.8088 19.9567 11.5562C19.3391 11.7908 18.2665 12.1184 17.631 11.7107C17.1513 11.4027 17.1486 10.6231 17.305 9.94529C18.3128 9.91273 19.3603 9.9189 20.3696 9.94529C20.4335 9.46494 20.6168 8.94124 20.4565 8.4668C20.2452 7.84045 19.4882 7.67816 18.7178 7.73849ZM19.6089 9.41559H17.4136C17.4832 8.90319 17.9372 8.33999 18.6526 8.31223C19.3259 8.28609 19.8079 8.5632 19.6089 9.41559V9.41559ZM15.1751 7.82674C14.3841 7.52505 13.4201 7.88518 13.0021 8.22774C13.0036 8.24282 12.9921 8.24488 12.9798 8.24599C12.9869 8.23991 12.9947 8.23383 13.0021 8.22774C13.002 8.22648 13.0019 8.22522 13.0017 8.22397C13.0087 8.07668 13.0597 7.97403 13.0668 7.82674H12.2626C11.9275 10.0904 11.5301 12.2908 11.1108 14.469H12.0453C12.1806 13.6207 12.2699 12.7257 12.4583 11.9313C12.6718 12.7669 14.0654 12.6072 14.6536 12.2844C15.8669 11.6181 16.8028 8.44744 15.1751 7.82674V7.82674ZM14.4362 11.5562C13.9361 12.0938 12.7069 12.0858 12.6104 11.1809C12.5685 10.7873 12.7129 10.3746 12.7844 9.96731C12.8566 9.55508 12.9087 9.15956 12.9799 8.79772C13.4724 8.18713 14.9197 8.11335 15.0665 9.12871C15.1938 10.0102 14.8502 11.1109 14.4362 11.5562V11.5562ZM38.366 5.84066C38.2859 6.55373 38.1788 7.23946 38.0401 7.89289C35.7475 7.15609 34.3416 8.86866 34.367 10.9824C34.3719 11.3912 34.4412 11.7966 34.6929 12.0858C35.127 12.5839 36.3694 12.7033 36.9969 12.2843C37.1183 12.2032 37.2424 12.0557 37.3228 11.9534C37.3833 11.8764 37.4793 11.6746 37.4968 11.7327C37.4637 11.9566 37.4144 12.1641 37.4099 12.4167H38.2576C38.421 10.0374 38.926 8.00522 39.3008 5.84058H38.3661V5.84066H38.366ZM36.2796 11.9092C35.6504 11.9229 35.3376 11.5275 35.3231 10.872C35.2981 9.72405 35.794 8.44864 36.8012 8.33425C37.2701 8.28104 37.6096 8.39174 37.9532 8.51084C37.6377 9.8004 37.7515 11.8771 36.2796 11.9092V11.9092ZM28.2159 7.82674C28.1699 8.08893 28.0993 8.32619 28.0421 8.57699C28.5936 8.43656 30.3109 8.00608 30.4764 8.7535C30.5313 9.00182 30.4365 9.26564 30.3677 9.45971C28.8148 9.31037 27.5491 9.5723 27.2161 10.6955C26.9931 11.4478 27.2411 12.1881 27.7161 12.3947C28.6308 12.7927 29.7434 12.3368 30.1286 11.7107C30.0886 11.9274 30.0507 12.1465 30.0635 12.4168H30.8676C30.8762 11.6348 30.9883 11.0019 31.1067 10.2982C31.2076 9.69903 31.3976 9.10584 31.3676 8.57699C31.2984 7.36584 29.3221 7.79427 28.2159 7.82674V7.82674ZM29.7373 11.534C29.2557 12.0128 27.9037 12.1487 28.0421 11.0044C28.1568 10.054 29.1761 9.85206 30.2806 9.98924C30.1986 10.5092 30.1044 11.1693 29.7373 11.534V11.534Z" fill="white"/>
</g>
<defs>
<clipPath id="clip0_3802_222">
<rect width="43" height="19" fill="white" transform="translate(0 0.191406)"/>
</clipPath>
</defs>
</svg>
