<svg width="150" height="21" viewBox="0 0 150 21" fill="none" xmlns="http://www.w3.org/2000/svg">
<path d="M0.409091 15V3.36362H4.47727C5.28788 3.36362 5.95644 3.50377 6.48295 3.78408C7.00947 4.06059 7.40152 4.4337 7.65909 4.90339C7.91667 5.3693 8.04545 5.88635 8.04545 6.45453C8.04545 6.95453 7.95644 7.36741 7.77841 7.69317C7.60417 8.01892 7.37311 8.2765 7.08523 8.46589C6.80114 8.65529 6.49242 8.79544 6.15909 8.88635V8.99998C6.51515 9.02271 6.87311 9.14771 7.23295 9.37498C7.5928 9.60226 7.89394 9.92801 8.13636 10.3523C8.37879 10.7765 8.5 11.2954 8.5 11.9091C8.5 12.4924 8.36742 13.017 8.10227 13.4829C7.83712 13.9488 7.41856 14.3182 6.84659 14.5909C6.27462 14.8636 5.5303 15 4.61364 15H0.409091ZM1.81818 13.75H4.61364C5.53409 13.75 6.1875 13.572 6.57386 13.2159C6.96402 12.856 7.15909 12.4204 7.15909 11.9091C7.15909 11.5151 7.05871 11.1515 6.85795 10.8182C6.6572 10.481 6.37121 10.2121 6 10.0113C5.62879 9.8068 5.18939 9.70453 4.68182 9.70453H1.81818V13.75ZM1.81818 8.47726H4.43182C4.85606 8.47726 5.23864 8.39392 5.57955 8.22726C5.92424 8.06059 6.19697 7.82574 6.39773 7.52271C6.60227 7.21968 6.70455 6.86362 6.70455 6.45453C6.70455 5.94317 6.52652 5.50945 6.17045 5.15339C5.81439 4.79355 5.25 4.61362 4.47727 4.61362H1.81818V8.47726ZM11.2926 15H9.81534L14.0881 3.36362H15.5426L19.8153 15H18.3381L14.8608 5.20453H14.7699L11.2926 15ZM11.8381 10.4545H17.7926V11.7045H11.8381V10.4545ZM21.6278 15V3.36362H25.5597C26.4688 3.36362 27.215 3.51892 27.7983 3.82953C28.3816 4.13635 28.8134 4.5587 29.0938 5.09658C29.3741 5.63445 29.5142 6.2462 29.5142 6.9318C29.5142 7.61741 29.3741 8.22536 29.0938 8.75567C28.8134 9.28597 28.3835 9.70264 27.804 10.0057C27.2244 10.3049 26.4839 10.4545 25.5824 10.4545H22.4006V9.1818H25.5369C26.1581 9.1818 26.6581 9.09089 27.0369 8.90908C27.4195 8.72726 27.696 8.46968 27.8665 8.13635C28.0407 7.79923 28.1278 7.39771 28.1278 6.9318C28.1278 6.46589 28.0407 6.0587 27.8665 5.71021C27.6922 5.36173 27.4138 5.09279 27.0312 4.90339C26.6487 4.71021 26.143 4.61362 25.5142 4.61362H23.0369V15H21.6278ZM27.1051 9.77271L29.9688 15H28.3324L25.5142 9.77271H27.1051ZM41.2259 6.99998H39.8168C39.7334 6.59468 39.5876 6.23862 39.3793 5.9318C39.1747 5.62498 38.9247 5.36741 38.6293 5.15908C38.3376 4.94695 38.0137 4.78786 37.6577 4.6818C37.3016 4.57574 36.9304 4.52271 36.544 4.52271C35.8395 4.52271 35.2012 4.70074 34.6293 5.0568C34.0611 5.41286 33.6084 5.93748 33.2713 6.63067C32.938 7.32385 32.7713 8.17423 32.7713 9.1818C32.7713 10.1894 32.938 11.0398 33.2713 11.7329C33.6084 12.4261 34.0611 12.9507 34.6293 13.3068C35.2012 13.6629 35.8395 13.8409 36.544 13.8409C36.9304 13.8409 37.3016 13.7879 37.6577 13.6818C38.0137 13.5757 38.3376 13.4185 38.6293 13.2102C38.9247 12.9981 39.1747 12.7386 39.3793 12.4318C39.5876 12.1212 39.7334 11.7651 39.8168 11.3636H41.2259C41.1198 11.9583 40.9266 12.4905 40.6463 12.9602C40.366 13.4299 40.0175 13.8295 39.6009 14.1591C39.1842 14.4848 38.7164 14.7329 38.1974 14.9034C37.6823 15.0738 37.1312 15.1591 36.544 15.1591C35.5516 15.1591 34.669 14.9167 33.8963 14.4318C33.1236 13.947 32.5156 13.2576 32.0724 12.3636C31.6293 11.4697 31.4077 10.4091 31.4077 9.1818C31.4077 7.95453 31.6293 6.89392 32.0724 5.99998C32.5156 5.10605 33.1236 4.41665 33.8963 3.9318C34.669 3.44695 35.5516 3.20453 36.544 3.20453C37.1312 3.20453 37.6823 3.28976 38.1974 3.46021C38.7164 3.63067 39.1842 3.88067 39.6009 4.21021C40.0175 4.53597 40.366 4.9337 40.6463 5.40339C40.9266 5.8693 41.1198 6.4015 41.2259 6.99998ZM43.5028 15V3.36362H44.9119V8.54544H51.1165V3.36362H52.5256V15H51.1165V9.79544H44.9119V15H43.5028ZM55.3466 15V3.36362H62.3239V4.61362H56.7557V8.54544H61.8011V9.79544H56.7557V15H55.3466ZM64.7372 15V3.36362H71.7599V4.61362H66.1463V8.54544H71.3963V9.79544H66.1463V13.75H71.8509V15H64.7372ZM74.2997 15V3.36362H75.7088V13.75H81.1179V15H74.2997ZM86.8906 15H83.2997V3.36362H87.0497C88.1785 3.36362 89.1444 3.59658 89.9474 4.06248C90.7505 4.52461 91.366 5.18938 91.794 6.0568C92.2221 6.92044 92.4361 7.95453 92.4361 9.15908C92.4361 10.3712 92.2202 11.4148 91.7884 12.2898C91.3565 13.161 90.7277 13.8314 89.902 14.3011C89.0762 14.767 88.0724 15 86.8906 15ZM84.7088 13.75H86.7997C87.7618 13.75 88.5592 13.5644 89.1918 13.1932C89.8243 12.822 90.2959 12.2935 90.6065 11.6079C90.9171 10.9223 91.0724 10.106 91.0724 9.15908C91.0724 8.21968 90.919 7.41097 90.6122 6.73294C90.3054 6.05112 89.8471 5.52839 89.2372 5.16476C88.6274 4.79733 87.8679 4.61362 86.9588 4.61362H84.7088V13.75Z" fill="#959595"/>
<path d="M94.402 15V3.36362H98.9929C99.8755 3.36362 100.627 3.53218 101.249 3.8693C101.87 4.20264 102.343 4.66665 102.669 5.26135C102.999 5.85226 103.163 6.53408 103.163 7.3068C103.163 8.07953 102.997 8.76135 102.663 9.35226C102.33 9.94317 101.847 10.4034 101.214 10.7329C100.586 11.0625 99.8243 11.2273 98.9304 11.2273H96.0043V9.25567H98.5327C99.0062 9.25567 99.3963 9.17423 99.7031 9.01135C100.014 8.84468 100.245 8.61551 100.396 8.32385C100.552 8.02839 100.629 7.68938 100.629 7.3068C100.629 6.92044 100.552 6.58332 100.396 6.29544C100.245 6.00377 100.014 5.77839 99.7031 5.6193C99.3925 5.45642 98.9986 5.37498 98.5213 5.37498H96.8622V15H94.402ZM105.423 15H102.787L106.804 3.36362H109.974L113.986 15H111.349L108.435 6.02271H108.344L105.423 15ZM105.259 10.4261H111.486V12.3466H105.259V10.4261ZM113.517 3.36362H116.273L118.926 8.37498H119.04L121.693 3.36362H124.449L120.205 10.8863V15H117.761V10.8863L113.517 3.36362Z" fill="white"/>
<path fill-rule="evenodd" clip-rule="evenodd" d="M134.203 13.8617L134.199 13.8662L134.196 13.8707C134.018 14.1227 133.62 14.1968 133.308 13.9765C133.058 13.8002 132.983 13.4074 133.196 13.097C133.513 12.6927 133.743 12.2201 133.894 11.7581C134.052 11.2771 134.125 10.7305 134.122 10.1944C134.119 9.65838 134.04 9.11262 133.878 8.63333C133.722 8.17295 133.486 7.7028 133.165 7.30194C132.949 6.99377 133.02 6.60017 133.268 6.42122C133.577 6.19769 133.976 6.26749 134.157 6.51761L134.16 6.5221L134.164 6.5265C134.564 7.05405 134.892 7.64018 135.088 8.21523C135.294 8.89171 135.426 9.54608 135.429 10.1875C135.433 10.8624 135.368 11.5013 135.121 12.1302C134.851 12.8151 134.59 13.34 134.203 13.8617ZM137.095 15.1145L137.103 15.1034L137.11 15.0919C137.997 13.6713 138.509 11.957 138.499 10.1711C138.489 8.3857 137.96 6.67737 137.059 5.26646C136.863 4.95669 136.951 4.59045 137.28 4.35261C137.502 4.19288 137.917 4.24944 138.163 4.57952C139.181 6.19416 139.795 8.146 139.806 10.1642C139.817 12.2512 139.224 14.1397 138.222 15.7661C137.991 16.085 137.636 16.1743 137.33 15.9936C136.999 15.7507 136.938 15.337 137.095 15.1145ZM142.286 2.45724L142.295 2.47449L142.305 2.49097C143.684 4.73919 144.45 7.33243 144.465 10.1394C144.48 12.945 143.742 15.5451 142.388 17.8072C142.181 18.1409 141.83 18.235 141.475 18.0697C141.152 17.859 141.065 17.5098 141.234 17.1571C142.385 15.1125 143.101 12.703 143.088 10.1467C143.074 7.60176 142.408 5.19618 141.157 3.15136C140.988 2.80221 141.071 2.45448 141.391 2.24137C141.776 2.05725 142.152 2.1922 142.286 2.45724ZM146.369 0.317663L146.375 0.329447L146.382 0.340883C148.053 3.22941 149.035 6.53184 149.054 10.1149C149.073 13.6943 148.128 17.0039 146.491 19.9079C146.283 20.2378 145.934 20.3302 145.581 20.1656C145.259 19.9556 145.171 19.608 145.338 19.2564C146.915 16.5648 147.764 13.4463 147.747 10.1219C147.729 6.78887 146.772 3.68251 145.243 1.0174C145.051 0.628355 145.186 0.247321 145.454 0.111831C145.846 -0.0870443 146.232 0.0479557 146.369 0.317663Z" fill="white"/>
</svg>
